<?xml version="1.0" encoding="UTF-8" standalone="no"?>
<!-- Created with Inkscape (http://www.inkscape.org/) -->

<svg
   xmlns:dc="http://purl.org/dc/elements/1.1/"
   xmlns:cc="http://creativecommons.org/ns#"
   xmlns:rdf="http://www.w3.org/1999/02/22-rdf-syntax-ns#"
   xmlns:svg="http://www.w3.org/2000/svg"
   xmlns="http://www.w3.org/2000/svg"
   xmlns:sodipodi="http://sodipodi.sourceforge.net/DTD/sodipodi-0.dtd"
   xmlns:inkscape="http://www.inkscape.org/namespaces/inkscape"
   version="1.1"
   id="svg10"
   width="512"
   height="512"
   viewBox="0 0 512 512"
   sodipodi:docname="Copy.svg"
   inkscape:version="0.92.4 (5da689c313, 2019-01-14)">
  <metadata
     id="metadata16">
    <rdf:RDF>
      <cc:Work
         rdf:about="">
        <dc:format>image/svg+xml</dc:format>
        <dc:type
           rdf:resource="http://purl.org/dc/dcmitype/StillImage" />
        <dc:title></dc:title>
      </cc:Work>
    </rdf:RDF>
  </metadata>
  <defs
     id="defs14" />
  <sodipodi:namedview
     pagecolor="#ffffff"
     bordercolor="#666666"
     borderopacity="1"
     objecttolerance="10"
     gridtolerance="10"
     guidetolerance="10"
     inkscape:pageopacity="0"
     inkscape:pageshadow="2"
     inkscape:window-width="1920"
     inkscape:window-height="1017"
     id="namedview12"
     showgrid="false"
     inkscape:zoom="0.828125"
     inkscape:cx="591.57853"
     inkscape:cy="91.825336"
     inkscape:window-x="-8"
     inkscape:window-y="-8"
     inkscape:window-maximized="1"
     inkscape:current-layer="svg10" />
  <path
     style="fill:#0b0b0b;stroke-width:1.13795471"
     d="M 16.85075,509.35075 C 9.857683,506.18936 5.582072,502.0357 2.3988033,495.311 0.0402054,490.3284 0.0283126,489.22156 0.014197,273.30931 L 0,56.315173 2.715245,50.751222 C 4.208629,47.691048 7.576098,43.33769 10.198516,41.0771 18.599517,33.835193 21.3434,33.50297 72.753197,33.50297 H 118.3419 l 0.7428,-6.795877 c 0.87189,-7.97706 5.41543,-16.7295031 10.6766,-20.5668721 8.83466,-6.44379095 0.97721,-6.10139595 140.48104,-6.12163795 L 398.40684,2.9486416e-6 455.20341,54.303919 512,108.60784 l -0.0116,173.59956 -0.0116,173.59956 -2.75533,5.56395 c -3.25197,6.56678 -8.80068,11.90786 -15.25909,14.68807 -4.19458,1.80568 -9.3848,2.03687 -52.50062,2.33845 l -47.84587,0.33465 -0.62021,6.54075 c -0.74592,7.86622 -5.37428,16.61524 -10.93551,20.67148 -8.8382,6.44636 3.03945,6.0595 -185.67364,6.04768 l -173.717806,-0.0111 -5.81844,-2.63035 z m 349.88754,-21.44537 c 1.24791,-1.07993 2.12808,-3.37025 2.12808,-5.53747 v -3.69584 l -113.7505,-0.30467 -113.75049,-0.30466 -5.99162,-3.02186 c -3.2954,-1.66203 -7.63062,-4.91694 -9.63385,-7.23313 -6.66715,-7.7088 -7.06646,-10.88209 -7.06646,-56.15801 0,-22.5342 -0.1309,-41.06638 -0.29092,-41.18263 -0.16,-0.11624 -9.45496,-0.4918 -20.655463,-0.83458 L 77.36253,369.00928 v -10.57151 -10.57151 l 20.364537,-0.5564 20.364543,-0.55638 V 330.06162 313.36977 L 98.033287,313.06535 C 74.777362,312.71241 76.417511,313.77512 77.01503,299.44677 l 0.3475,-8.33282 20.364537,-0.62324 c 11.200503,-0.34277 20.509453,-0.71835 20.686573,-0.83459 0.17713,-0.11624 0.17713,-7.5975 0,-16.62501 l -0.32203,-16.41366 -19.732073,-0.30615 c -14.0001,-0.21721 -19.995141,-0.7021 -20.637648,-1.66918 -1.481689,-2.23022 -1.108739,-19.11875 0.455223,-20.61432 0.975461,-0.93279 7.299361,-1.33534 20.977495,-1.33534 h 19.581073 l -0.32204,-16.41366 -0.32203,-16.41366 -19.117543,-0.30672 c -11.685475,-0.18746 -19.715423,-0.7812 -20.655462,-1.52724 -1.047494,-0.8313 -1.537919,-4.14993 -1.537919,-10.40673 0,-6.2568 0.490425,-9.57543 1.537919,-10.40674 0.940039,-0.74604 8.969987,-1.33977 20.655462,-1.52724 l 19.117543,-0.30671 V 116.40586 57.427964 H 72.160297 26.228994 l -1.476756,2.781975 c -1.18077,2.224402 -1.420885,45.231391 -1.198051,214.580101 0.273979,208.21291 0.31693,211.82487 2.537561,213.37756 1.92616,1.3468 27.022991,1.57944 170.388662,1.57944 154.81351,0 168.29835,-0.14586 170.25788,-1.84166 z m 120.17643,-35.12803 c 1.61936,-2.21082 1.81152,-19.59847 1.81152,-163.91402 0,-124.08138 -0.32315,-161.74986 -1.39643,-162.77619 -1.03254,-0.98738 -12.0249,-1.33819 -42.18369,-1.34622 -40.26828,-0.0111 -40.8614,-0.0438 -46.61417,-2.60565 -3.2048,-1.42712 -7.59051,-4.51553 -9.746,-6.86313 -7.60422,-8.28193 -7.58948,-8.18855 -8.25755,-52.280224 l -0.607,-40.060454 -116.27094,-0.283607 c -106.94985,-0.26086 -116.44201,-0.135527 -118.40523,1.56346 -2.0558,1.779107 -2.13432,9.677682 -2.13432,214.694485 0,192.01391 0.17898,213.01855 1.82865,214.59606 1.64564,1.57367 18.75909,1.74868 170.99613,1.74868 H 485.10321 Z M 197.13766,334.70291 c -0.32643,-0.81348 -0.44092,-5.94623 -0.25439,-11.4061 l 0.33912,-9.92704 117.40652,-0.28354 c 85.78668,-0.20718 117.8322,0.0543 118.9871,0.97083 2.05742,1.63282 2.20995,18.85237 0.18415,20.78956 -2.16122,2.0667 -235.83242,1.92481 -236.6625,-0.14371 z m 1.49832,-56.07105 c -1.84502,-0.4381 -2.04033,-1.69722 -1.74553,-11.25385 l 0.33194,-10.76056 118.04221,-0.28353 c 93.66477,-0.22497 118.23367,0.004 118.96928,1.11279 0.5099,0.76799 0.93509,5.50994 0.9449,10.5377 0.0151,7.77601 -0.30471,9.30643 -2.14162,10.2465 -2.12126,1.08561 -229.87705,1.47518 -234.40118,0.40095 z m -1.99543,-68.20046 v -11.13315 l 118.98709,0.28344 118.9871,0.28345 0.34751,8.33282 c 0.19112,4.58306 0.0503,9.46542 -0.31309,10.84971 l -0.66059,2.51689 h -118.67402 -118.674 z m 0.77579,-46.36102 c -0.42668,-0.40801 -0.77579,-5.41557 -0.77579,-11.12791 0,-7.55005 0.39719,-10.39469 1.45461,-10.41774 18.81851,-0.41025 235.20619,0.15575 235.98709,0.61727 1.21593,0.71861 1.55083,17.06212 0.408,19.91004 -0.63766,1.58903 -12.16129,1.76021 -118.50224,1.76021 -64.78772,0 -118.14499,-0.33384 -118.57167,-0.74187 z m 271.02713,-62.81373 c 0.90178,-1.395277 -59.69456,-59.964147 -62.03992,-59.964147 -1.13643,0 -1.46285,6.331899 -1.46285,28.376155 0,26.892435 0.12169,28.492535 2.32738,30.601732 2.20295,2.1066 3.87896,2.22559 31.35089,2.22559 20.06912,0 29.27064,-0.38236 29.8245,-1.23933 z"
     id="path20"
     inkscape:connector-curvature="0" />
</svg>
